<svg width="30" height="28" viewBox="0 0 30 28" fill="none" xmlns="http://www.w3.org/2000/svg">
<path d="M1.01072 14.9749C-0.950604 5.14816 7.03368 1.61498 10.5484 0.903676C21.1492 -1.24665 29.1548 3.85058 29.1548 12.6938C29.1548 21.537 26.2148 26.4505 16.4221 27.4312C6.62903 28.4143 2.96959 24.8016 1.01072 14.9749Z" fill="#DD0E23"/>
<path d="M12.9855 11.046C12.8592 10.413 13.3733 10.1854 13.5996 10.1395C14.2822 10.001 14.798 10.3294 14.798 10.8988C14.798 11.4683 14.6086 11.7848 13.978 11.8479C13.3475 11.9114 13.1118 11.6786 12.9855 11.046Z" fill="white"/>
<path d="M4.61602 14.999C4.49959 13.7133 4.65333 12.1722 4.69392 11.7655C4.81035 10.5966 5.28592 10.0297 6.15958 10.0297C7.32432 10.0297 7.42149 12.428 8.61575 12.428C9.8096 12.428 9.56689 9.97144 11.0813 9.97144C12.2174 9.97144 12.1879 10.9865 12.3047 12.0385C12.4011 12.9097 12.4211 14.6489 12.3047 15.3257C12.1711 16.103 11.9259 16.6774 11.14 16.6774C10.3536 16.6774 10.3635 16.0215 10.3635 15.3499C10.3635 14.6784 10.3881 13.3923 10.3881 13.3923C10.3881 13.3923 9.45087 14.6464 8.46077 14.6464C7.47068 14.6464 6.53881 13.1852 6.53881 13.1852V15.3766C6.53881 16.3117 6.30594 16.6622 5.60693 16.6622C4.9071 16.6622 4.72917 16.2498 4.61602 14.999Z" fill="white"/>
<path d="M14.8421 15.6996C14.8421 16.4331 14.4395 16.6618 13.8766 16.6618C13.3137 16.6618 12.9111 16.4327 12.9111 15.6996L12.8574 13.6653C12.8574 12.9319 13.3137 12.3374 13.8766 12.3374C14.4395 12.3374 14.8958 12.9319 14.8958 13.6653L14.8421 15.6996Z" fill="white"/>
<path d="M17.5999 19.4019C17.0915 19.3642 16.7844 19.0558 16.7844 18.5836C16.7844 18.1113 17.0686 17.7456 17.5101 17.7652L17.9684 17.7862C18.3682 17.8042 18.7695 17.9567 18.7695 18.5836C18.7691 19.1419 18.4043 19.4617 17.5999 19.4019ZM17.1194 13.6745C17.3912 13.5187 17.8315 13.5827 17.8315 13.5827C18.1948 13.5991 18.5592 13.9229 18.5592 14.3071C18.5592 14.6908 18.2763 15.0151 17.9131 15.0315L17.4966 15.0504C17.0956 15.0688 16.7188 14.8778 16.6922 14.376C16.6729 14.0054 16.8476 13.8303 17.1194 13.6745ZM18.749 16.6021L17.5482 16.5562C17.5454 16.546 17.5429 16.5357 17.5429 16.5255C17.5429 16.457 17.6142 16.3832 17.7266 16.3488L18.1624 16.3291H18.3346V16.3213L18.592 16.3098C19.628 16.2627 20.4336 15.339 20.4336 14.2448C20.4336 13.9853 20.3746 13.736 20.2721 13.5052C20.6226 13.3838 20.7391 13.1223 20.7391 12.7197C20.7391 12.2072 20.2319 11.9116 19.5596 12.0362C19.4247 12.0612 19.1857 12.1465 19.0459 12.3363C18.8249 12.2453 18.592 12.1904 18.3596 12.1797C18.3596 12.1797 17.5851 12.0772 16.8082 12.233C16.0317 12.3888 15.154 13.0337 15.2929 14.3952C15.3795 15.2451 15.7443 15.8277 16.2896 16.1282C16.2183 16.2524 16.1773 16.3861 16.1773 16.5255C16.1773 16.6739 16.1945 16.8075 16.2252 16.9297C15.7583 17.293 15.4893 17.8751 15.4344 18.4884C15.3421 19.5232 15.7206 20.2198 17.0021 20.4535C18.0906 20.6519 19.0213 20.4535 19.0213 20.4535C20.2856 20.1427 20.8075 19.4265 20.8075 18.5836C20.8084 17.2659 19.8683 16.6452 18.749 16.6021Z" fill="white"/>
<path d="M23.3073 15.2376C22.6768 15.3007 22.441 15.0682 22.3147 14.4352C22.1885 13.8022 22.7026 13.5747 22.9289 13.5288C23.6115 13.3902 24.1273 13.7186 24.1273 14.2881C24.1273 14.8575 23.9383 15.1744 23.3073 15.2376ZM22.5394 12.0336C21.9322 12.1566 20.5527 12.767 20.8917 14.4648C21.2304 16.1625 21.8625 16.7869 23.5545 16.6167C25.2465 16.4474 25.7544 15.5983 25.7544 14.0704C25.754 12.5428 24.3712 11.6618 22.5394 12.0336Z" fill="white"/>
</svg>
